<?xml version="1.0" encoding="UTF-8" standalone="no"?>
<svg height="31"
     viewBox="0 0 88 31"
     xmlns="http://www.w3.org/2000/svg"
>
    <defs>
        <linearGradient id="falloff">
            <stop offset="5%" stop-color="rgba(24, 28, 32, 0)"/>
            <stop offset="95%" stop-color="rgba(24, 28, 32, 1)"/>
        </linearGradient>

        <symbol id="avatar">
            <image width="100%" height="100%" href="/share/avatar/static/31x31.webp"/>
        </symbol>

        <filter id="avatar-blur">
            <feGaussianBlur in="SourceGraphic" stdDeviation="5"/>
        </filter>

        <mask id="avatar-mask">
            <rect x="0" y="0" width="8" height="8" fill="black"/>
            <rect x="0" y="0" width="8" height="8" rx="0.75" ry="0.75" fill="white"/>
        </mask>
    </defs>

    <rect width="100%" height="100%" fill="rgb(24, 28, 32)"/>
    <use width="55" height="55" x="25" y="-5" href="#avatar" filter="url(#avatar-blur)" opacity="0.625"/>
    <use width="31" height="31" x="0" y="0" href="#avatar"/>
    <rect x="25" width="65" height="100%" fill="url(#falloff)"/>
    <path d="M35.8 24V16.9H38.77C39.2833 16.9 39.7267 16.9867 40.1 17.16C40.4733 17.3333 40.7633 17.58 40.97 17.9C41.1767 18.22 41.28 18.5967 41.28 19.03C41.28 19.3567 41.21 19.6467 41.07 19.9C40.93 20.1533 40.74 20.3567 40.5 20.51C40.2667 20.6633 40.0067 20.7567 39.72 20.79L39.67 20.69C40.13 20.69 40.4833 20.7933 40.73 21C40.9833 21.2067 41.1267 21.5233 41.16 21.95L41.34 24H40.02L39.87 22.14C39.85 21.86 39.76 21.6533 39.6 21.52C39.44 21.3867 39.1733 21.32 38.8 21.32H37.1V24H35.8ZM37.1 20.18H38.69C39.0833 20.18 39.39 20.0867 39.61 19.9C39.83 19.7133 39.94 19.45 39.94 19.11C39.94 18.7633 39.8267 18.4967 39.6 18.31C39.38 18.1233 39.0567 18.03 38.63 18.03H37.1V20.18ZM44.7483 24.12C44.2149 24.12 43.7516 24.0067 43.3583 23.78C42.9649 23.5467 42.6616 23.22 42.4483 22.8C42.2349 22.38 42.1283 21.89 42.1283 21.33C42.1283 20.77 42.2349 20.2833 42.4483 19.87C42.6616 19.45 42.9616 19.1233 43.3483 18.89C43.7416 18.6567 44.1983 18.54 44.7183 18.54C45.2249 18.54 45.6683 18.6533 46.0483 18.88C46.4349 19.1067 46.7316 19.4333 46.9383 19.86C47.1449 20.2867 47.2483 20.8 47.2483 21.4V21.69H43.4583C43.4849 22.1567 43.6116 22.51 43.8383 22.75C44.0716 22.9833 44.3783 23.1 44.7583 23.1C45.0449 23.1 45.2816 23.0367 45.4683 22.91C45.6616 22.7767 45.7949 22.5933 45.8683 22.36L47.1783 22.44C47.0316 22.96 46.7416 23.37 46.3083 23.67C45.8816 23.97 45.3616 24.12 44.7483 24.12ZM43.4583 20.83H45.9283C45.9016 20.3967 45.7783 20.0767 45.5583 19.87C45.3383 19.6567 45.0583 19.55 44.7183 19.55C44.3783 19.55 44.0949 19.66 43.8683 19.88C43.6483 20.1 43.5116 20.4167 43.4583 20.83ZM49.877 24.12C49.317 24.12 48.867 23.9933 48.527 23.74C48.187 23.48 48.017 23.12 48.017 22.66C48.017 22.2 48.1603 21.84 48.447 21.58C48.7336 21.32 49.1703 21.1333 49.757 21.02L51.527 20.67C51.527 20.29 51.4403 20.0067 51.267 19.82C51.0936 19.6267 50.837 19.53 50.497 19.53C50.1903 19.53 49.947 19.6033 49.767 19.75C49.5936 19.89 49.4736 20.0933 49.407 20.36L48.107 20.3C48.2136 19.7333 48.4736 19.3 48.887 19C49.3003 18.6933 49.837 18.54 50.497 18.54C51.257 18.54 51.8303 18.7333 52.217 19.12C52.6103 19.5 52.807 20.0467 52.807 20.76V22.7C52.807 22.84 52.8303 22.9367 52.877 22.99C52.9303 23.0433 53.007 23.07 53.107 23.07H53.277V24C53.237 24.0133 53.1703 24.0233 53.077 24.03C52.9903 24.0367 52.9003 24.04 52.807 24.04C52.587 24.04 52.3903 24.0067 52.217 23.94C52.0436 23.8667 51.9103 23.7433 51.817 23.57C51.7236 23.39 51.677 23.1467 51.677 22.84L51.787 22.92C51.7336 23.1533 51.617 23.3633 51.437 23.55C51.2636 23.73 51.0436 23.87 50.777 23.97C50.5103 24.07 50.2103 24.12 49.877 24.12ZM50.137 23.19C50.4236 23.19 50.6703 23.1333 50.877 23.02C51.0836 22.9067 51.2436 22.75 51.357 22.55C51.4703 22.35 51.527 22.1133 51.527 21.84V21.54L50.147 21.82C49.8603 21.88 49.6536 21.97 49.527 22.09C49.407 22.2033 49.347 22.3533 49.347 22.54C49.347 22.7467 49.4136 22.9067 49.547 23.02C49.687 23.1333 49.8836 23.19 50.137 23.19ZM55.3101 24C54.9234 24 54.6134 23.9 54.3801 23.7C54.1467 23.5 54.0301 23.18 54.0301 22.74V16.9H55.3101V22.61C55.3101 22.7433 55.3434 22.8433 55.4101 22.91C55.4834 22.9767 55.5834 23.01 55.7101 23.01H56.1001V24H55.3101ZM59.7788 24.16C59.1922 24.16 58.6855 24.0567 58.2588 23.85C57.8322 23.6433 57.4955 23.3567 57.2488 22.99C57.0088 22.6167 56.8688 22.1833 56.8288 21.69L58.1488 21.61C58.1888 21.9167 58.2755 22.1767 58.4088 22.39C58.5488 22.6033 58.7322 22.7667 58.9588 22.88C59.1922 22.9867 59.4722 23.04 59.7988 23.04C60.0788 23.04 60.3155 23.0067 60.5088 22.94C60.7088 22.8667 60.8588 22.7633 60.9588 22.63C61.0655 22.49 61.1188 22.32 61.1188 22.12C61.1188 21.94 61.0755 21.78 60.9888 21.64C60.9022 21.4933 60.7355 21.3633 60.4888 21.25C60.2422 21.13 59.8755 21.0133 59.3888 20.9C58.8022 20.7667 58.3322 20.6167 57.9788 20.45C57.6255 20.2767 57.3688 20.0633 57.2088 19.81C57.0488 19.55 56.9688 19.2267 56.9688 18.84C56.9688 18.4267 57.0722 18.0633 57.2788 17.75C57.4855 17.43 57.7788 17.1833 58.1588 17.01C58.5388 16.83 58.9955 16.74 59.5288 16.74C60.0955 16.74 60.5755 16.8433 60.9688 17.05C61.3622 17.25 61.6722 17.5267 61.8988 17.88C62.1255 18.2333 62.2655 18.64 62.3188 19.1L61.0088 19.16C60.9755 18.9 60.8955 18.6733 60.7688 18.48C60.6488 18.2867 60.4822 18.1367 60.2688 18.03C60.0622 17.9167 59.8088 17.86 59.5088 17.86C59.1355 17.86 58.8388 17.9467 58.6188 18.12C58.4055 18.2867 58.2988 18.51 58.2988 18.79C58.2988 18.9833 58.3422 19.1433 58.4288 19.27C58.5222 19.3967 58.6855 19.5067 58.9188 19.6C59.1522 19.6867 59.4788 19.78 59.8988 19.88C60.5322 20.0133 61.0355 20.1833 61.4088 20.39C61.7822 20.5967 62.0488 20.8367 62.2088 21.11C62.3688 21.3833 62.4488 21.6967 62.4488 22.05C62.4488 22.4833 62.3388 22.86 62.1188 23.18C61.8988 23.4933 61.5888 23.7367 61.1888 23.91C60.7888 24.0767 60.3188 24.16 59.7788 24.16ZM66.6485 24.16C65.9752 24.16 65.3952 24.0033 64.9085 23.69C64.4218 23.37 64.0485 22.9333 63.7885 22.38C63.5352 21.8267 63.4085 21.1867 63.4085 20.46C63.4085 19.7467 63.5385 19.11 63.7985 18.55C64.0652 17.99 64.4452 17.55 64.9385 17.23C65.4318 16.9033 66.0252 16.74 66.7185 16.74C67.3185 16.74 67.8218 16.8433 68.2285 17.05C68.6418 17.2567 68.9718 17.5433 69.2185 17.91C69.4652 18.2767 69.6385 18.7 69.7385 19.18L68.3785 19.25C68.3052 18.83 68.1385 18.4967 67.8785 18.25C67.6252 17.9967 67.2418 17.87 66.7285 17.87C66.2752 17.87 65.9018 17.9867 65.6085 18.22C65.3218 18.4533 65.1052 18.7667 64.9585 19.16C64.8185 19.5467 64.7485 19.98 64.7485 20.46C64.7485 20.9533 64.8185 21.3933 64.9585 21.78C65.0985 22.1667 65.3152 22.4733 65.6085 22.7C65.9085 22.92 66.2852 23.03 66.7385 23.03C67.0918 23.03 67.3952 22.9567 67.6485 22.81C67.9018 22.6633 68.1018 22.4633 68.2485 22.21C68.3952 21.95 68.4752 21.6633 68.4885 21.35H66.7385V20.34H69.7585V24H68.9185L68.8385 22.44L68.9985 22.54C68.9252 22.86 68.7752 23.1433 68.5485 23.39C68.3285 23.63 68.0518 23.82 67.7185 23.96C67.3918 24.0933 67.0352 24.16 66.6485 24.16ZM71.0344 24V16.9H72.3344V24H71.0344ZM73.7785 24V16.9H75.0785V24H73.7785ZM76.4689 24C76.4689 23.4267 76.5489 22.9267 76.7089 22.5C76.8689 22.0667 77.1389 21.6733 77.5189 21.32C77.8989 20.96 78.4122 20.61 79.0589 20.27C79.3789 20.0967 79.6356 19.9433 79.8289 19.81C80.0222 19.6767 80.1622 19.54 80.2489 19.4C80.3356 19.2533 80.3789 19.08 80.3789 18.88C80.3789 18.68 80.3356 18.5067 80.2489 18.36C80.1622 18.2067 80.0322 18.0867 79.8589 18C79.6922 17.9133 79.4822 17.87 79.2289 17.87C78.8222 17.87 78.4989 17.9867 78.2589 18.22C78.0256 18.4467 77.8822 18.7733 77.8289 19.2L76.4889 19.12C76.5556 18.38 76.8256 17.8 77.2989 17.38C77.7789 16.9533 78.4222 16.74 79.2289 16.74C79.7489 16.74 80.1956 16.83 80.5689 17.01C80.9422 17.1833 81.2256 17.43 81.4189 17.75C81.6189 18.07 81.7189 18.44 81.7189 18.86C81.7189 19.22 81.6556 19.53 81.5289 19.79C81.4089 20.05 81.2089 20.29 80.9289 20.51C80.6556 20.7233 80.2856 20.9533 79.8189 21.2C79.2322 21.5133 78.7922 21.8167 78.4989 22.11C78.2056 22.3967 78.0489 22.65 78.0289 22.87H81.7189V24H76.4689Z"
          fill="white"/>
    <path opacity="0.64"
          d="M35.64 13V7.32H39.44V8.224H36.112L36.68 7.64V10.248L36.112 9.776H39.296V10.672H36.112L36.68 10.2V13H35.64ZM40.1459 13V8.728H41.1059L41.1459 9.912L41.0579 9.896C41.1219 9.48533 41.2419 9.18933 41.4179 9.008C41.5993 8.82133 41.8446 8.728 42.1539 8.728H42.5459V9.608H42.1459C41.9273 9.608 41.7459 9.64 41.6019 9.704C41.4579 9.768 41.3486 9.86933 41.2739 10.008C41.2046 10.1413 41.1699 10.3173 41.1699 10.536V13H40.1459ZM43.2084 13V8.728H44.2324V13H43.2084ZM43.1924 8.16V7.248H44.2564V8.16H43.1924ZM47.1268 13.096C46.7001 13.096 46.3294 13.0053 46.0148 12.824C45.7001 12.6373 45.4574 12.376 45.2868 12.04C45.1161 11.704 45.0308 11.312 45.0308 10.864C45.0308 10.416 45.1161 10.0267 45.2868 9.696C45.4574 9.36 45.6974 9.09867 46.0068 8.912C46.3214 8.72533 46.6868 8.632 47.1028 8.632C47.5081 8.632 47.8628 8.72267 48.1668 8.904C48.4761 9.08533 48.7134 9.34667 48.8788 9.688C49.0441 10.0293 49.1267 10.44 49.1267 10.92V11.152H46.0948C46.1161 11.5253 46.2174 11.808 46.3988 12C46.5854 12.1867 46.8308 12.28 47.1348 12.28C47.3641 12.28 47.5534 12.2293 47.7028 12.128C47.8574 12.0213 47.9641 11.8747 48.0228 11.688L49.0708 11.752C48.9534 12.168 48.7214 12.496 48.3748 12.736C48.0334 12.976 47.6174 13.096 47.1268 13.096ZM46.0948 10.464H48.0708C48.0494 10.1173 47.9508 9.86133 47.7748 9.696C47.5988 9.52533 47.3748 9.44 47.1028 9.44C46.8308 9.44 46.6041 9.528 46.4228 9.704C46.2468 9.88 46.1374 10.1333 46.0948 10.464ZM49.9272 13V8.728H50.8552L50.8952 9.928L50.7752 9.88C50.8179 9.58133 50.9059 9.34133 51.0392 9.16C51.1725 8.97867 51.3352 8.84533 51.5272 8.76C51.7192 8.67467 51.9299 8.632 52.1592 8.632C52.4739 8.632 52.7379 8.70133 52.9512 8.84C53.1699 8.97867 53.3352 9.17067 53.4472 9.416C53.5592 9.656 53.6152 9.936 53.6152 10.256V13H52.5912V10.584C52.5912 10.344 52.5672 10.1413 52.5192 9.976C52.4712 9.81067 52.3912 9.68533 52.2792 9.6C52.1725 9.50933 52.0285 9.464 51.8472 9.464C51.5752 9.464 51.3565 9.56 51.1912 9.752C51.0312 9.944 50.9512 10.2213 50.9512 10.584V13H49.9272ZM56.1503 13.096C55.7876 13.096 55.473 13.0053 55.2063 12.824C54.945 12.6427 54.7423 12.384 54.5983 12.048C54.4543 11.712 54.3823 11.3173 54.3823 10.864C54.3823 10.4107 54.4543 10.016 54.5983 9.68C54.7423 9.344 54.9476 9.08533 55.2143 8.904C55.481 8.72267 55.793 8.632 56.1503 8.632C56.449 8.632 56.7103 8.69333 56.9343 8.816C57.1636 8.93867 57.337 9.112 57.4543 9.336V7.32H58.4783V13H57.5023L57.4783 12.368C57.361 12.5973 57.185 12.776 56.9503 12.904C56.7156 13.032 56.449 13.096 56.1503 13.096ZM56.4623 12.264C56.6756 12.264 56.8543 12.2107 56.9983 12.104C57.1476 11.9973 57.2596 11.84 57.3343 11.632C57.4143 11.4187 57.4543 11.1627 57.4543 10.864C57.4543 10.56 57.4143 10.304 57.3343 10.096C57.2596 9.888 57.1476 9.73067 56.9983 9.624C56.8543 9.51733 56.6756 9.464 56.4623 9.464C56.153 9.464 55.905 9.58933 55.7183 9.84C55.537 10.0853 55.4463 10.4267 55.4463 10.864C55.4463 11.2907 55.537 11.632 55.7183 11.888C55.905 12.1387 56.153 12.264 56.4623 12.264ZM63.3457 13.096C62.9244 13.096 62.5537 13.0053 62.2337 12.824C61.919 12.6373 61.6737 12.376 61.4977 12.04C61.327 11.704 61.2417 11.312 61.2417 10.864C61.2417 10.4107 61.327 10.0187 61.4977 9.688C61.6737 9.352 61.919 9.09333 62.2337 8.912C62.5537 8.72533 62.9244 8.632 63.3457 8.632C63.767 8.632 64.135 8.72533 64.4497 8.912C64.7644 9.09333 65.007 9.352 65.1777 9.688C65.3537 10.0187 65.4417 10.4107 65.4417 10.864C65.4417 11.312 65.3537 11.704 65.1777 12.04C65.007 12.376 64.7644 12.6373 64.4497 12.824C64.135 13.0053 63.767 13.096 63.3457 13.096ZM63.3457 12.264C63.6764 12.264 63.9297 12.1413 64.1057 11.896C64.287 11.6507 64.3777 11.3067 64.3777 10.864C64.3777 10.4267 64.287 10.0853 64.1057 9.84C63.9297 9.58933 63.6764 9.464 63.3457 9.464C63.015 9.464 62.759 9.58933 62.5777 9.84C62.3964 10.0853 62.3057 10.4267 62.3057 10.864C62.3057 11.3067 62.3964 11.6507 62.5777 11.896C62.759 12.1413 63.015 12.264 63.3457 12.264ZM66.5158 13V8.56C66.5158 8.176 66.6225 7.87467 66.8358 7.656C67.0545 7.432 67.3878 7.32 67.8358 7.32H68.6678V8.112H68.0278C67.8625 8.112 67.7398 8.15467 67.6598 8.24C67.5851 8.32533 67.5478 8.45067 67.5478 8.616V13H66.5158ZM65.9078 9.632V8.84H68.6118V9.632H65.9078Z"
          fill="white"/>
</svg>
